<svg viewBox="0 0 512 512" xmlns="http://www.w3.org/2000/svg" style="fill-rule:evenodd;clip-rule:evenodd;stroke-linejoin:round;stroke-miterlimit:2;">
    <g id="Container-with-logo" transform="matrix(-9.79717e-18,0.16,0.16,9.79717e-18,168,16.7273)">
        <path d="M407.455,1910L2583.45,1910C2733.58,1910 2855.45,1788.12 2855.45,1638L2855.45,-538C2855.45,-688.121 2733.58,-810 2583.45,-810L407.455,-810C257.334,-810 135.455,-688.121 135.455,-538L135.455,1638C135.455,1788.12 257.334,1910 407.455,1910ZM1713.95,978.47L1785.52,906.904C1787.61,907.032 1789.73,906.99 1791.83,906.772C1800.67,905.861 1809.28,901.378 1827.13,894.241C1886.24,870.594 1953.76,893.345 1986.51,947.928L1996.03,963.795C2006.78,981.711 2011.19,991.332 2018.59,997.845C2022.58,1001.35 2027.25,1003.99 2032.31,1005.61C2041.73,1008.62 2052.38,1007.44 2073.54,1007.44C2098.77,1007.44 2111.49,1009.03 2122.3,1005C2128.05,1002.86 2133.2,999.365 2137.34,994.823C2145.06,986.311 2148.26,974.054 2157.51,950.926C2179.48,895.988 2240.47,867.704 2296.6,886.418L2333.41,898.689C2352.32,904.989 2361.5,909.15 2370.79,909.44C2377.57,909.647 2384.28,908.064 2390.25,904.844C2398.43,900.432 2404.79,892.606 2418.88,878.512C2432.97,864.419 2440.8,858.066 2445.21,849.885C2448.43,843.914 2450.02,837.198 2449.81,830.417C2449.52,821.13 2445.36,811.947 2439.06,793.039L2429.04,762.99C2409.05,703.086 2439.24,637.979 2497.89,614.523C2516.24,607.182 2525.84,604.425 2533,598.817C2539.35,593.846 2543.98,587.012 2546.24,579.275C2548.78,570.541 2547.78,560.601 2547.78,540.83C2547.78,521.059 2548.78,511.119 2546.24,502.385C2543.98,494.649 2539.35,487.815 2533,482.844C2525.84,477.235 2516.24,474.478 2497.89,467.138C2439.25,443.684 2409.06,378.588 2429.02,318.675L2439.05,288.589C2445.36,269.683 2449.52,260.502 2449.8,251.212C2449.89,248.52 2449.69,245.838 2449.21,243.209L2519.16,173.26C2522.76,178.02 2525.63,182.465 2528.1,187.046C2539.2,207.623 2544.66,230.765 2543.94,254.13C2543.45,269.915 2539.11,286.237 2528.4,318.371L2518.37,348.448C2514.17,361.058 2520.52,374.76 2532.86,379.696C2563.89,392.107 2578.97,399.217 2591.08,408.701L2591.08,408.704C2612.93,425.822 2628.87,449.362 2636.64,476.006L2636.65,476.012C2640.95,490.78 2641.95,507.412 2641.95,540.83C2641.95,574.249 2640.95,590.88 2636.65,605.642L2636.65,605.648C2628.87,632.298 2612.93,655.838 2591.08,672.955L2591.08,672.957C2578.97,682.443 2563.89,689.553 2532.86,701.964C2520.53,706.899 2514.17,720.592 2518.38,733.193L2528.4,763.26C2539.11,795.4 2543.45,811.726 2543.94,827.51L2543.94,827.517C2544.66,850.888 2539.2,874.021 2528.1,894.59C2520.61,908.491 2509.43,921.155 2485.47,945.106C2461.53,969.056 2448.86,980.237 2434.96,987.734C2414.39,998.828 2391.25,1004.29 2367.89,1003.57L2367.89,1003.57C2352.1,1003.08 2335.77,998.744 2303.63,988.034L2266.81,975.761C2257.99,972.82 2248.41,977.263 2244.96,985.897L2244.95,985.899C2229.33,1024.96 2220.1,1043.78 2207.05,1058.15L2207.04,1058.15C2192.8,1073.82 2175.03,1085.85 2155.21,1093.24L2155.21,1093.25C2137.04,1100.02 2115.97,1101.61 2073.54,1101.61C2037.56,1101.61 2019.66,1100.43 2003.66,1095.32C1986.24,1089.76 1970.15,1080.65 1956.41,1068.58L1956.4,1068.57C1943.76,1057.44 1933.63,1042.84 1915.27,1012.24L1905.76,996.385C1896.79,981.437 1878.3,975.205 1862.11,981.681L1862.11,981.683C1831.87,993.773 1816.46,998.909 1801.5,1000.45C1774.41,1003.25 1747.12,997.646 1723.33,984.403C1720.2,982.661 1717.13,980.723 1713.95,978.47ZM2088.74,-67.604C2096.24,-67.763 2103.87,-65.955 2110.84,-61.966C2233.69,8.28 2332.37,82.911 2407.42,160.034L2347.65,219.807C2281.81,152.418 2195.31,86.927 2088.73,24.183C1815.56,184.841 1674.51,363.494 1674.57,545.952C1674.6,631.911 1705.95,717.028 1767.64,799.817L1707.43,860.022C1628.08,757.197 1588.99,651.096 1588.95,545.982C1588.88,335.939 1744.71,121.945 2066.65,-61.974C2073.62,-65.958 2081.25,-67.763 2088.74,-67.604ZM1236.26,1760L407.455,1760C340.121,1760 285.455,1705.33 285.455,1638L285.455,-538C285.455,-605.334 340.121,-660 407.455,-660L1567.05,-660C1422,-438.458 1403.41,440.761 1400,550C1396.43,664.282 1408.53,1531.02 1236.26,1760ZM2365.17,548.821C2365.17,700.424 2242.26,823.326 2090.66,823.326C1939.06,823.326 1816.16,700.424 1816.16,548.821C1816.16,397.216 1939.06,274.315 2090.66,274.315C2242.26,274.315 2365.17,397.216 2365.17,548.821ZM2278.48,548.821C2278.48,445.091 2194.39,361.001 2090.66,361.001C1986.93,361.001 1902.84,445.091 1902.84,548.821C1902.84,652.549 1986.93,736.641 2090.66,736.641C2194.39,736.641 2278.48,652.549 2278.48,548.821Z"/>
    </g>
    <g id="Markdown" transform="matrix(1.62766,0,0,1.62766,77.8261,51.0295)">
        <path d="M30,98L30,30L50,30L70,55L90,30L110,30L110,98L90,98L90,59L70,84L50,59L50,98L30,98ZM155,98L125,65L145,65L145,30L165,30L165,65L185,65L155,98Z" style="fill-rule:nonzero;"/>
    </g>
</svg>
