<?xml version="1.0" encoding="UTF-8" standalone="no"?><!DOCTYPE svg PUBLIC "-//W3C//DTD SVG 1.1//EN" "http://www.w3.org/Graphics/SVG/1.1/DTD/svg11.dtd"><svg width="100%" height="100%" viewBox="0 0 3000 1091" version="1.1" xmlns="http://www.w3.org/2000/svg" xmlns:xlink="http://www.w3.org/1999/xlink" xml:space="preserve" xmlns:serif="http://www.serif.com/" style="fill-rule:evenodd;clip-rule:evenodd;stroke-linejoin:round;stroke-miterlimit:2;"><path id="Container-with-logo-ALT" serif:id="Container with logo ALT" d="M2900,280l0,540c0,46.083 -17.355,88.145 -45.88,120c-32.969,36.817 -80.859,60 -134.12,60l-2440,0c-99.345,0 -180,-80.655 -180,-180l0,-540c0,-99.345 80.655,-180 180,-180l2440,0c53.261,0 101.151,23.183 134.12,60c28.525,31.855 45.88,73.917 45.88,120Zm-967.942,-130l-1652.06,0c-71.749,0 -130,58.251 -130,130l0,540c0,71.749 58.251,130 130,130l1489.12,0c74.194,-76.673 77.195,-282.056 80.878,-400c3.526,-112.899 3.265,-322.239 82.058,-400Zm67.948,378.963c-0.098,4.628 1.017,9.339 3.48,13.646c43.362,75.829 89.43,136.742 137.037,183.073l36.897,-36.897c-41.598,-40.643 -82.024,-94.034 -120.756,-159.828c99.172,-168.62 209.452,-255.694 322.08,-255.653c53.061,0.019 105.602,19.371 156.707,57.45l37.164,-37.163c-63.473,-48.985 -128.967,-73.113 -193.852,-73.136c-129.656,-0.047 -261.751,96.145 -375.282,294.872c-2.459,4.304 -3.573,9.012 -3.475,13.636Zm380.509,170.636c93.582,-0 169.448,-75.866 169.448,-169.448c-0,-93.583 -75.866,-169.448 -169.448,-169.448c-93.584,0 -169.448,75.865 -169.448,169.448c0,93.582 75.865,169.448 169.448,169.448Zm0,-53.51c-64.031,-0 -115.938,-51.908 -115.938,-115.938c0,-64.031 51.907,-115.938 115.938,-115.938c64.03,0 115.938,51.907 115.938,115.938c0,64.03 -51.908,115.938 -115.938,115.938Zm265.215,-348.475l-44.176,44.177c0.079,1.293 0.053,2.596 -0.081,3.897c-0.563,5.453 -3.33,10.771 -7.735,21.788c-14.597,36.485 -0.554,78.168 33.14,98.385l9.794,5.876c11.059,6.635 16.998,9.358 21.018,13.926c2.163,2.462 3.796,5.346 4.793,8.468c1.856,5.812 1.128,12.386 1.128,25.45c-0,15.576 0.985,23.428 -1.501,30.096c-1.325,3.552 -3.481,6.733 -6.285,9.284c-5.255,4.769 -12.82,6.744 -27.097,12.455c-33.912,13.562 -51.372,51.207 -39.82,85.856l7.575,22.724c3.889,11.67 6.457,17.338 6.636,23.071c0.128,4.185 -0.849,8.332 -2.837,12.017c-2.723,5.05 -7.554,8.972 -16.254,17.671c-8.699,8.7 -12.621,13.531 -17.671,16.254c-3.686,1.988 -7.831,2.965 -12.017,2.837c-5.733,-0.178 -11.402,-2.747 -23.073,-6.636l-18.549,-6.186c-36.977,-12.335 -77.167,6.299 -91.646,42.5c-4.532,11.328 -6.233,17.255 -9.695,21.677c-3.069,3.916 -7.287,6.774 -12.063,8.168c-5.391,1.571 -11.527,0.951 -23.732,0.951c-12.204,0 -18.34,0.62 -23.731,-0.951c-4.776,-1.394 -8.994,-4.252 -12.063,-8.168c-3.462,-4.422 -5.163,-10.349 -9.694,-21.677c-14.479,-36.197 -54.661,-54.832 -91.644,-42.509l-18.572,6.192c-11.67,3.89 -17.338,6.459 -23.072,6.636c-1.662,0.052 -3.318,-0.072 -4.94,-0.364l-43.179,43.178c2.938,2.22 5.683,3.992 8.51,5.517c12.702,6.849 26.987,10.223 41.41,9.775c9.744,-0.302 19.819,-2.98 39.655,-9.591l18.566,-6.19c7.784,-2.594 16.242,1.327 19.289,8.946c7.661,19.152 12.05,28.458 17.905,35.933l0.001,0.002c10.567,13.489 25.098,23.328 41.545,28.128l0.003,0.001c9.116,2.657 19.383,3.277 40.011,3.277c20.629,-0 30.895,-0.62 40.008,-3.276l0.003,-0.001c16.451,-4.801 30.982,-14.64 41.548,-28.127l0.001,-0.002c5.856,-7.477 10.245,-16.782 17.906,-35.935c3.046,-7.615 11.498,-11.537 19.277,-8.942l18.56,6.189c19.839,6.612 29.917,9.29 39.66,9.592l0.004,0c14.427,0.443 28.707,-2.929 41.404,-9.776c8.581,-4.628 16.398,-11.53 31.182,-26.315c14.784,-14.784 21.686,-22.601 26.314,-31.182c6.848,-12.697 10.219,-26.982 9.777,-41.399l-0,-0.005c-0.302,-9.747 -2.981,-19.825 -9.592,-39.662l-7.575,-22.727c-1.816,-5.446 0.927,-11.362 6.256,-13.494l0.001,-0c24.115,-9.647 35.726,-15.344 44.597,-23.401l0.005,-0.005c9.671,-8.79 17.096,-19.756 21.661,-31.993l0,-0.002c4.183,-11.215 5.166,-24.217 5.166,-50.411c-0,-22.211 -0.728,-33.256 -3.883,-43.134c-3.435,-10.757 -9.058,-20.689 -16.511,-29.169l-0.005,-0.005c-6.866,-7.804 -15.884,-14.058 -34.767,-25.388l-9.79,-5.872c-9.227,-5.537 -13.074,-16.951 -9.077,-26.943l0.002,-0.003c7.463,-18.665 10.633,-28.177 11.586,-37.412c1.725,-16.719 -1.732,-33.565 -9.907,-48.252c-1.075,-1.932 -2.272,-3.828 -3.663,-5.789Z"/><path id="Markdown" d="M270,865.713l0,-640.517l188.387,0l188.387,235.484l188.387,-235.484l188.387,0l0,640.517l-188.387,-0l0,-367.355l-188.387,235.484l-188.387,-235.484l0,367.355l-188.387,-0Zm1177.42,-0l-282.58,-310.839l188.387,-0l-0,-329.678l188.387,0l-0,329.678l188.387,-0l-282.581,310.839Z" style="fill-rule:nonzero;"/></svg>