<svg viewBox="0 0 512 512" xmlns="http://www.w3.org/2000/svg" style="fill-rule:evenodd;clip-rule:evenodd;stroke-linejoin:round;stroke-miterlimit:2;"><path id="Container-with-symbol" d="M473.6,81.92l0,348.16c0,24.019 -19.501,43.52 -43.52,43.52l-348.16,0c-24.019,0 -43.52,-19.501 -43.52,-43.52l-0,-348.16c-0,-24.019 19.501,-43.52 43.52,-43.52l348.16,-0c24.019,-0 43.52,19.501 43.52,43.52Zm-160.634,361.336c4.897,-0.005 9.434,-2.633 11.875,-6.879l17.237,-30.014c2.487,-4.335 2.419,-9.662 -0.171,-13.929l-17.807,-29.306c-2.476,-4.061 -6.959,-6.582 -11.705,-6.582l-32.477,-0c-4.87,0.01 -9.384,2.606 -11.841,6.81l-17.237,29.649c-2.475,4.259 -2.471,9.537 0.011,13.792l17.34,29.671c2.441,4.187 6.97,6.788 11.818,6.788l32.957,-0Zm-25.245,-73.009l-0,-0.012l24.663,0l13.666,22.496l-25.667,0.285l-12.662,-22.769Zm-11.83,6.901l-0,-0.011l12.719,22.861l-12.616,22.69l-13.325,-22.793l13.222,-22.747Zm24.652,29.557l25.69,-0.285l-13.29,23.146l-25.12,0l12.72,-22.861Zm-68.583,-11.247c4.897,-0.006 9.434,-2.634 11.875,-6.879l17.237,-30.025c2.476,-4.312 2.419,-9.64 -0.159,-13.895l-17.705,-29.295c-2.464,-4.072 -6.959,-6.605 -11.716,-6.605l-32.375,0c-4.837,0 -9.354,2.59 -11.807,6.754l-17.431,29.671c-2.498,4.266 -2.509,9.571 -0.011,13.837l17.328,29.649c2.442,4.187 6.97,6.788 11.819,6.788l32.945,-0Zm-50.285,-43.338l13.347,-22.724l12.64,22.712l-12.674,22.793l-13.313,-22.781Zm37.867,6.799l25.685,-0.285l-13.278,23.134l-25.12,0l12.713,-22.849Zm-12.713,-36.471l-0,-0.011l24.652,0l13.598,22.496l-25.588,0.285l-12.662,-22.77Zm106.228,24.983l0.011,0.023c4.898,-0.005 9.435,-2.633 11.876,-6.879l17.237,-30.013c2.487,-4.324 2.418,-9.663 -0.171,-13.929l-17.808,-29.306c-2.475,-4.062 -6.947,-6.583 -11.704,-6.583l-32.478,0c-4.869,0.01 -9.384,2.606 -11.841,6.811l-17.237,29.648c-2.474,4.255 -2.47,9.53 0.012,13.781l17.339,29.671c2.442,4.175 6.97,6.776 11.819,6.776l32.945,0Zm-37.12,-66.005l12.662,22.759l-12.56,22.587l-13.267,-22.701l13.165,-22.645Zm24.594,29.455l25.793,-0.285l-13.278,23.146l-25.234,0l12.719,-22.861Zm-12.822,-36.459l0,-0.011l24.778,-0l13.666,22.496l-25.781,0.285l-12.663,-22.77Zm161.891,-59.894l0,-132.608c0,-10.773 -8.747,-19.52 -19.52,-19.52l-348.16,0c-10.773,0 -19.52,8.747 -19.52,19.52l0,185.535c35.447,-23.207 176.122,-26.182 193.6,-26.728c18.285,-0.571 156.962,1.364 193.6,-26.199Z"/><path id="Markdown" d="M126.656,210.541l0,-110.682l32.553,0l32.554,40.692l32.553,-40.692l32.553,0l0,110.682l-32.553,-0l-0,-63.479l-32.553,40.691l-32.554,-40.691l0,63.479l-32.553,-0Zm203.458,-0l-48.83,-53.713l32.553,-0l0,-56.969l32.554,0l-0,56.969l32.553,-0l-48.83,53.713Z" style="fill-rule:nonzero;"/></svg>