<?xml version="1.0" encoding="UTF-8" standalone="no"?><!DOCTYPE svg PUBLIC "-//W3C//DTD SVG 1.1//EN" "http://www.w3.org/Graphics/SVG/1.1/DTD/svg11.dtd"><svg width="100%" height="100%" viewBox="0 0 3000 1091" version="1.1" xmlns="http://www.w3.org/2000/svg" xmlns:xlink="http://www.w3.org/1999/xlink" xml:space="preserve" xmlns:serif="http://www.serif.com/" style="fill-rule:evenodd;clip-rule:evenodd;stroke-linejoin:round;stroke-miterlimit:2;"><path id="Container-with-image" serif:id="Container with image" d="M2900,280l0,540c0,46.083 -17.355,88.145 -45.88,120c-32.969,36.817 -80.859,60 -134.12,60l-2440,0c-99.345,0 -180,-80.655 -180,-180l0,-540c0,-99.345 80.655,-180 180,-180l2440,0c53.261,0 101.151,23.183 134.12,60c28.525,31.855 45.88,73.917 45.88,120Zm-626.385,424.184c17.888,-0.019 34.459,-9.617 43.375,-25.125l62.958,-109.667c9.042,-15.75 8.833,-35.208 -0.583,-50.75l-64.667,-107c-9,-14.875 -25.417,-24.125 -42.792,-24.125l-118.25,0c-17.666,0 -34.166,9.458 -43.125,24.667l-63.666,108.375c-9.125,15.583 -9.167,34.958 -0.042,50.541l63.292,108.292c8.916,15.292 25.458,24.792 43.166,24.792l120.334,-0Zm-183.667,-158.292l48.75,-83l46.167,82.958l-46.292,83.25l-48.625,-83.208Zm138.31,24.833l93.815,-1.041l-48.5,84.5l-91.75,-0l46.435,-83.459Zm-46.435,-133.208l-0,-0.042l90.042,0l49.666,82.167l-93.458,1.042l-46.25,-83.167Zm387.667,441.25c17.888,-0.018 34.459,-9.617 43.375,-25.125l62.958,-109.625c9.083,-15.833 8.833,-35.292 -0.625,-50.875l-65.042,-107.042c-9.041,-14.833 -25.416,-24.041 -42.75,-24.041l-118.625,-0c-17.786,0.035 -34.275,9.518 -43.25,24.875l-62.958,108.291c-9.038,15.557 -9.022,34.834 0.042,50.375l63.333,108.375c8.917,15.292 25.458,24.792 43.167,24.792l120.375,0Zm-135.417,-241.458l-0,-0.042l46.458,83.5l-46.083,82.875l-48.667,-83.25l48.292,-83.083Zm43.208,-25.209l0,-0.041l90.084,-0l49.916,82.166l-93.75,1.042l-46.25,-83.167Zm46.834,133.167l93.833,-1.042l-48.542,84.542l-91.75,0l46.459,-83.5Zm-592.057,-595.267l-1652.06,0c-71.749,0 -130,58.251 -130,130l-0,540c-0,71.749 58.251,130 130,130l1489.12,0c74.194,-76.673 77.195,-282.056 80.878,-400c3.526,-112.899 3.265,-322.239 82.058,-400Zm637.765,378.767l0.042,0.083c17.888,-0.018 34.459,-9.617 43.375,-25.125l62.958,-109.625c9.083,-15.791 8.833,-35.291 -0.625,-50.875l-65.042,-107.041c-9.041,-14.834 -25.375,-24.042 -42.75,-24.042l-118.625,0c-17.786,0.035 -34.275,9.519 -43.25,24.875l-62.958,108.292c-9.038,15.541 -9.022,34.806 0.042,50.333l63.333,108.375c8.917,15.25 25.458,24.75 43.167,24.75l120.333,0Zm-45.75,-133.5l94.208,-1.042l-48.5,84.542l-92.166,0l46.458,-83.5Zm-89.833,-107.583l46.25,83.125l-45.875,82.5l-48.459,-82.917l48.084,-82.708Zm43,-25.584l-0,-0.041l90.5,-0l49.916,82.166l-94.166,1.042l-46.25,-83.167Z"/><path id="Markdown" d="M270,865.713l0,-640.517l188.387,0l188.387,235.484l188.387,-235.484l188.387,0l0,640.517l-188.387,-0l0,-367.355l-188.387,235.484l-188.387,-235.484l0,367.355l-188.387,-0Zm1177.42,-0l-282.58,-310.839l188.387,-0l-0,-329.678l188.387,0l-0,329.678l188.387,-0l-282.581,310.839Z" style="fill-rule:nonzero;"/></svg>