<svg viewBox="0 0 512 512" xmlns="http://www.w3.org/2000/svg" style="fill-rule:evenodd;clip-rule:evenodd;stroke-linejoin:round;stroke-miterlimit:2;"><path id="Container-with-symbol" d="M473.6,81.92l0,348.16c0,24.019 -19.501,43.52 -43.52,43.52l-348.16,0c-24.019,0 -43.52,-19.501 -43.52,-43.52l-0,-348.16c-0,-24.019 19.501,-43.52 43.52,-43.52l348.16,-0c24.019,-0 43.52,19.501 43.52,43.52Zm-321.019,270.08c-0.027,1.264 0.277,2.55 0.95,3.726c30.999,54.21 67.065,80.501 102.466,80.514c35.404,0.013 71.473,-26.253 102.473,-80.516c0.672,-1.176 0.976,-2.461 0.949,-3.724c0.027,-1.263 -0.277,-2.55 -0.95,-3.726c-30.999,-54.21 -67.065,-80.501 -102.466,-80.514c-35.404,-0.013 -71.473,26.253 -102.473,80.517c-0.672,1.175 -0.976,2.461 -0.949,3.723Zm191.367,0.002c-27.079,46.042 -57.192,69.818 -87.945,69.807c-30.755,-0.011 -60.871,-23.808 -87.951,-69.81c27.079,-46.043 57.192,-69.819 87.945,-69.808c30.755,0.011 60.871,23.808 87.951,69.811Zm-87.948,44.397c24.441,-0 44.254,-19.814 44.254,-44.255c0,-24.441 -19.813,-44.254 -44.254,-44.254c-24.441,0 -44.254,19.813 -44.254,44.254c-0,24.441 19.813,44.255 44.254,44.255Zm0,-11.545c-18.065,0 -32.71,-14.645 -32.71,-32.71c0,-18.065 14.645,-32.709 32.71,-32.709c18.065,-0 32.71,14.644 32.71,32.709c-0,18.065 -14.645,32.71 -32.71,32.71Zm193.6,-170.326l0,-132.608c0,-10.773 -8.747,-19.52 -19.52,-19.52l-348.16,-0c-10.773,-0 -19.52,8.747 -19.52,19.52l0,185.535c35.447,-23.207 176.122,-26.182 193.6,-26.728c18.285,-0.571 156.962,1.364 193.6,-26.199Z"/><path id="Markdown" d="M126.656,210.541l0,-110.682l32.553,0l32.554,40.692l32.553,-40.692l32.553,0l0,110.682l-32.553,-0l-0,-63.479l-32.553,40.691l-32.554,-40.691l0,63.479l-32.553,-0Zm203.458,-0l-48.83,-53.713l32.553,-0l0,-56.969l32.554,0l-0,56.969l32.553,-0l-48.83,53.713Z" style="fill-rule:nonzero;"/></svg>