<?xml version="1.0" encoding="UTF-8" standalone="no"?><!DOCTYPE svg PUBLIC "-//W3C//DTD SVG 1.1//EN" "http://www.w3.org/Graphics/SVG/1.1/DTD/svg11.dtd"><svg width="100%" height="100%" viewBox="0 0 3000 1091" version="1.1" xmlns="http://www.w3.org/2000/svg" xmlns:xlink="http://www.w3.org/1999/xlink" xml:space="preserve" xmlns:serif="http://www.serif.com/" style="fill-rule:evenodd;clip-rule:evenodd;stroke-linejoin:round;stroke-miterlimit:2;"><path id="Container" d="M2900,280l0,540c0,46.083 -17.355,88.145 -45.88,120c-32.969,36.817 -80.859,60 -134.12,60l-2440,0c-99.345,0 -180,-80.655 -180,-180l0,-540c0,-99.345 80.655,-180 180,-180l2440,0c53.261,0 101.151,23.183 134.12,60c28.525,31.855 45.88,73.917 45.88,120Zm-884.994,260.001c-0.096,4.499 0.989,9.081 3.384,13.269c110.394,193.054 238.835,286.685 364.909,286.73c126.081,0.045 254.533,-93.494 364.933,-286.739c2.391,-4.186 3.474,-8.764 3.379,-13.261c0.095,-4.499 -0.99,-9.081 -3.385,-13.269c-110.394,-193.054 -238.834,-286.686 -364.909,-286.731c-126.08,-0.045 -254.532,93.494 -364.932,286.74c-2.392,4.186 -3.475,8.764 -3.379,13.261Zm681.509,0.005c-96.437,163.97 -203.675,248.642 -313.198,248.602c-109.526,-0.039 -216.774,-84.786 -313.215,-248.613c96.437,-163.97 203.675,-248.643 313.197,-248.603c109.527,0.039 216.774,84.786 313.216,248.614Zm-313.207,158.11c87.04,-0 157.602,-70.562 157.602,-157.602c-0,-87.04 -70.562,-157.601 -157.602,-157.601c-87.041,0 -157.601,70.561 -157.601,157.601c-0,87.04 70.56,157.602 157.601,157.602Zm0,-41.114c-64.334,0 -116.488,-52.154 -116.488,-116.488c0,-64.334 52.154,-116.487 116.488,-116.487c64.334,-0 116.488,52.153 116.488,116.487c0,64.334 -52.154,116.488 -116.488,116.488Zm-451.25,-507.002l-1652.06,0c-71.749,0 -130,58.251 -130,130l0,540c0,71.749 58.251,130 130,130l1489.12,0c74.194,-76.673 77.195,-282.056 80.878,-400c3.526,-112.899 3.265,-322.239 82.058,-400Z"/><path id="Markdown" d="M270,865.713l0,-640.517l188.387,0l188.387,235.484l188.387,-235.484l188.387,0l0,640.517l-188.387,-0l0,-367.355l-188.387,235.484l-188.387,-235.484l0,367.355l-188.387,-0Zm1177.42,-0l-282.58,-310.839l188.387,-0l-0,-329.678l188.387,0l-0,329.678l188.387,-0l-282.581,310.839Z" style="fill-rule:nonzero;"/></svg>